<svg width="27" height="27" viewBox="0 0 27 27" fill="none" xmlns="http://www.w3.org/2000/svg">
<ellipse cx="13.5" cy="13.5" rx="12.15" ry="12.15" fill="white"/>
<path d="M13.5 6.79631C12.9175 6.79631 12.4453 7.26849 12.4453 7.851V14.6428C12.4453 15.2253 12.9175 15.6975 13.5 15.6975C14.0825 15.6975 14.5547 15.2253 14.5547 14.6428V7.851C14.5547 7.26849 14.0825 6.79631 13.5 6.79631Z" fill="#0555FF"/>
<path d="M13.5 19.8365C14.2864 19.8365 14.9238 19.1991 14.9238 18.4127C14.9238 17.6263 14.2864 16.9889 13.5 16.9889C12.7136 16.9889 12.0762 17.6263 12.0762 18.4127C12.0762 19.1991 12.7136 19.8365 13.5 19.8365Z" fill="#0555FF"/>
</svg>
