<svg width="569" height="589" viewBox="0 0 569 589" fill="none" xmlns="http://www.w3.org/2000/svg">
<path d="M269.239 13.5445C267.622 13.8479 264.893 15.0615 263.175 16.2751L260.244 18.5001L262.569 22.6466C263.883 24.8715 264.691 27.0965 264.388 27.501C264.085 27.9056 261.659 29.3215 258.829 30.6362L253.776 33.0634L261.356 47.4245L268.835 61.8868L232.956 82.2148C213.249 93.4408 197.078 103.15 197.078 103.655C197.078 104.161 198.695 107.802 200.615 111.645C202.536 115.488 204.153 119.028 204.153 119.533C204.153 120.039 201.525 121.86 198.392 123.579C195.158 125.399 191.924 127.22 191.216 127.624C190.105 128.332 191.722 132.276 198.291 145.121C202.839 154.223 206.78 162.01 206.983 162.313C207.185 162.718 205.871 163.527 204.153 164.134C202.435 164.741 199.605 166.359 197.887 167.775C194.349 170.708 192.429 170.91 189.801 168.584C187.982 166.966 187.275 167.269 175.753 173.236C169.083 176.776 163.423 179.405 163.322 179.304C163.12 179.102 158.774 171.011 153.62 161.403C148.466 151.795 143.918 144.109 143.513 144.21C140.077 145.626 131.385 150.784 131.385 151.29C131.385 151.694 139.37 166.966 149.173 185.069C158.875 203.172 166.758 218.14 166.556 218.241C166.051 218.645 154.631 224.916 147.556 228.759C143.918 230.68 140.178 232.804 139.066 233.411C137.753 234.22 137.045 234.22 136.742 233.411C136.54 232.804 135.731 231.489 135.024 230.377C133.71 228.556 133.508 228.556 129.465 230.377C124.816 232.501 124.917 232.4 126.433 235.231C127.343 236.85 127.141 237.659 125.423 239.479C124.21 240.693 123.3 242.21 123.3 242.816C123.3 243.524 126.029 245.648 129.364 247.671C132.699 249.694 135.428 252.02 135.428 252.829C135.428 253.638 134.316 255.964 133.002 258.088C128.252 265.673 123.199 276.697 123.805 278.315C124.412 279.933 119.763 293.283 118.146 294.294C115.922 295.609 117.64 297.935 122.694 300.463L128.252 303.093L126.433 306.733C122.795 313.813 122.896 314.622 126.837 315.937C128.758 316.544 130.375 317.555 130.375 318.061C130.375 319.476 126.534 323.016 125.018 323.016C124.311 323.016 121.38 323.724 118.55 324.533C113.598 326.05 113.194 326.354 110.263 332.826C108.545 336.467 106.826 340.512 106.523 341.827C105.31 346.58 103.693 346.783 94.5975 343.243C86.7144 340.209 82.9749 339.906 84.4909 342.434C85.4005 343.85 100.257 350.727 102.177 350.626C103.188 350.525 109.555 348.704 116.327 346.479C136.338 340.108 133.609 339.4 137.955 352.446C139.976 358.514 141.492 363.773 141.391 363.874C140.683 364.481 58.3149 389.664 49.0169 392.091C44.0646 393.406 35.2719 395.327 29.5112 396.339C19.6067 398.058 19.1014 398.26 19.6067 400.485C20.1121 402.204 19.7078 402.811 17.6865 403.317C16.2716 403.721 15.1599 404.531 15.1599 405.239C15.2609 405.845 16.4737 411.913 18.0908 418.588L20.9206 430.724L25.5696 431.028C29.7133 431.331 38.506 429.713 43.5593 427.69C44.9742 427.185 45.5806 428.601 47.2987 435.983C50.2297 448.221 53.0595 461.469 55.0808 471.684C57.5064 484.225 64.2778 511.329 65.9959 515.273C67.613 519.318 71.2513 523.667 83.7835 537.118L92.8794 546.827L105.715 547.231C126.433 547.737 135.731 551.378 149.577 564.02L157.157 570.998L166.051 561.593L174.945 552.288L179.392 556.637C181.918 559.165 183.94 561.491 183.94 562.098C183.94 562.604 181.413 565.638 178.381 568.874C175.349 572.11 172.822 575.145 172.822 575.65C172.822 576.156 173.631 577.673 174.642 578.887C176.259 580.808 176.764 581.01 178.482 579.898C179.493 579.19 181.312 577.268 182.424 575.549C185.658 570.492 217.089 554.918 227.398 553.198C229.318 552.895 235.483 551.884 241.042 550.973C249.026 549.76 260.244 549.355 294.607 549.153C318.559 549.052 339.177 549.355 340.389 549.76C341.703 550.265 345.544 550.063 348.98 549.557C352.416 548.951 362.725 548.04 371.922 547.636C381.119 547.13 390.518 546.22 392.741 545.512C396.481 544.4 398.3 544.602 410.428 547.434C427.407 551.479 434.279 552.187 439.939 550.67C443.78 549.557 445.296 549.659 453.684 552.086C463.285 554.715 465.104 554.918 462.376 552.592C461.567 551.884 460.86 550.872 460.86 550.265C460.86 549.254 471.674 536.309 475.312 533.073C477.131 531.454 477.536 531.454 479.658 532.87C482.286 534.59 482.993 533.376 480.567 531.353C479.153 530.241 479.355 529.331 482.185 524.375C487.036 515.576 487.44 515.374 491.584 518.509C493.504 520.026 495.727 521.24 496.435 521.24C497.243 521.24 498.456 519.318 499.265 516.992C501.084 511.935 502.196 511.43 505.632 514.16C507.956 515.981 508.361 517.093 508.361 521.24C508.361 526.398 509.877 528.926 510.584 524.982C510.887 523.768 510.988 520.835 510.887 518.408C510.685 513.554 507.653 509.71 501.69 506.474C498.759 504.856 498.254 504.047 498.254 500.912C498.254 497.271 498.254 497.271 489.36 493.529C481.881 490.495 477.94 487.865 466.115 478.157C450.45 465.414 449.844 464.402 449.338 452.873C449.136 449.131 448.429 447.007 446.812 445.288C445.599 443.973 444.184 441.141 443.577 438.815C442.971 436.59 440.343 430.219 437.918 424.656C435.391 419.094 432.056 409.688 430.641 403.721C429.024 397.148 427.306 392.293 426.194 391.585C424.981 390.574 424.274 387.945 423.667 381.674C422.657 371.662 423.263 348.3 424.577 346.682C426.093 344.861 428.721 328.983 428.721 322.51C428.62 317.757 429.125 315.532 431.045 312.397C435.795 304.509 435.997 304.003 434.684 301.474C433.875 299.957 433.875 298.238 434.482 296.013C435.391 292.979 435.189 292.777 432.359 291.766C430.641 291.159 426.801 290.653 423.769 290.653C418.917 290.653 418.311 290.35 417.401 288.024C416.088 284.686 416.088 284.282 417.705 282.158C418.816 280.54 419.726 280.54 425.992 281.551C429.934 282.158 434.077 282.866 435.189 283.068C436.806 283.473 438.019 285.293 439.636 289.642C442.567 297.53 443.274 296.923 440.545 288.833L438.423 282.562L441.152 277C443.375 272.449 443.881 270.426 443.476 266.381C442.87 260.414 441.556 258.593 435.795 256.166L431.45 254.245L431.955 236.85C432.359 222.488 432.763 218.241 434.583 213.285C435.795 209.948 437.008 206.307 437.311 205.296C438.524 201.554 445.801 187.294 447.216 185.777C448.024 184.968 448.732 183.248 448.732 181.933C448.732 180.518 450.147 177.888 451.865 175.865C453.684 173.843 455.806 169.595 456.918 165.853C458.232 161.403 460.354 157.661 463.285 154.121C465.711 151.391 468.945 146.638 470.461 143.705C476.02 133.49 496.94 111.443 504.823 107.6C508.563 105.779 512.706 104.97 521.196 104.161L532.616 103.251V97.9918V92.7328L522.308 94.5532C516.547 95.5646 511.797 96.4748 511.696 96.4748C511.494 96.4748 511.393 95.868 511.393 95.0589C511.393 94.1487 514.424 92.9351 520.387 91.4181C532.515 88.4852 532.818 88.1818 531.707 81.5069C531.302 78.574 530.595 75.9445 530.292 75.6411C529.989 75.3377 516.042 79.3831 499.265 84.7432C482.387 90.2045 468.44 94.351 468.237 94.0476C467.934 93.7442 464.094 94.8566 459.748 96.4748L451.764 99.3066L449.641 92.2271C448.53 88.2829 447.317 84.5409 447.115 83.833C446.812 83.0239 447.923 82.0126 450.147 81.3046C452.168 80.6978 453.987 79.7876 454.29 79.2819C455.099 78.0683 445.498 48.9416 444.386 48.9416C443.881 48.9416 439.838 50.5597 435.29 52.4813C426.093 56.4255 425.487 56.6278 425.487 54.504C425.487 52.3801 420.332 47.9302 417.806 47.9302C416.391 47.9302 415.178 46.9189 414.471 44.9973C413.46 42.7724 412.752 42.2667 410.731 42.6712C409.417 42.8735 407.598 42.5701 406.688 41.8621C405.375 40.7497 405.071 40.8508 404.566 42.6712C404.162 44.4916 403.252 44.8962 399.917 44.8962H395.874L396.582 39.2326C397.087 34.5805 396.885 33.0634 395.571 31.6476C393.752 29.726 391.529 29.0181 392.64 30.6362C393.651 32.2544 379.805 39.8395 377.177 39.1315C375.257 38.6258 374.853 38.9292 375.156 40.4463C375.358 41.8621 372.831 43.8848 363.837 49.1438C352.416 55.7176 348.677 57.1335 348.677 54.8074C348.677 54.2006 347.565 51.6722 346.15 49.245L343.522 44.8962L338.772 47.4245C336.145 48.7393 332.708 50.762 330.99 51.8745C326.948 54.7062 325.735 54.504 323.916 50.9643C323.006 49.245 321.793 47.9302 321.187 47.9302C320.58 47.9302 316.74 49.9529 312.697 52.4813C308.756 55.0096 305.218 57.0323 304.814 57.0323C304.511 57.0323 302.591 53.6949 300.569 49.6495C298.548 45.7053 294.809 38.8281 292.383 34.4793L287.835 26.5908L282.378 29.726C279.447 31.3442 276.516 32.76 275.909 32.76C273.989 32.76 274.899 29.9283 277.425 28.3101C280.255 26.4897 280.558 23.6579 278.537 17.0842C277.324 12.7354 276.112 12.3309 269.239 13.5445Z" fill="#050038"/>
<path d="M387.082 25.175C389.002 27.0966 390.821 28.7147 391.225 28.7147C391.731 28.7147 390.417 27.0966 388.396 25.175C386.374 23.2535 384.454 21.6353 384.252 21.6353C383.949 21.6353 385.161 23.2535 387.082 25.175Z" fill="#050038"/>
<path d="M485.115 538.433C484.105 540.354 484.206 540.455 485.924 539.343C487.339 538.433 488.451 538.534 490.977 539.849C494.818 541.77 495.222 541.871 495.222 540.152C495.222 538.938 489.967 536.41 487.339 536.41C486.732 536.41 485.722 537.32 485.115 538.433Z" fill="#050038"/>
<path d="M471.371 556.839L469.45 559.165L471.775 557.244C472.988 556.131 473.998 555.12 473.998 554.918C473.998 554.109 473.19 554.715 471.371 556.839Z" fill="#050038"/>
</svg>
